<svg width="24" height="25" viewBox="0 0 24 25" fill="none" xmlns="http://www.w3.org/2000/svg">
<g clip-path="url(#clip0_150_1266)">
<path d="M24.0001 12.295C24.0001 5.62597 18.6271 0.219971 12.0001 0.219971C5.37007 0.221471 -0.00292969 5.62597 -0.00292969 12.2965C-0.00292969 18.322 4.38607 23.317 10.1221 24.223V15.7855H7.07707V12.2965H10.1251V9.63397C10.1251 6.60847 11.9176 4.93747 14.6581 4.93747C15.9721 4.93747 17.3446 5.17297 17.3446 5.17297V8.14297H15.8311C14.3416 8.14297 13.8766 9.07447 13.8766 10.03V12.295H17.2036L16.6726 15.784H13.8751V24.2215C19.6111 23.3155 24.0001 18.3205 24.0001 12.295Z" fill="white"/>
</g>
<defs>
<clipPath id="clip0_150_1266">
<rect width="24" height="24" fill="white" transform="translate(0 0.221436)"/>
</clipPath>
</defs>
</svg>
