<svg width="35" height="35" viewBox="0 0 35 35" fill="none" xmlns="http://www.w3.org/2000/svg">
<rect width="35" height="35" fill="#D9D9D9"/>
<rect width="35" height="35" fill="url(#paint0_radial_60_31)"/>
<path d="M23.2994 30.9296H11.1712C7.22032 30.9296 4 27.6592 4 23.634V11.2956C4 7.27615 7.2147 4 11.1712 4H23.305C27.256 4 30.4763 7.27043 30.4763 11.2956V23.6397C30.4707 27.6592 27.256 30.9296 23.2994 30.9296ZM11.1712 6.24699C8.43426 6.24699 6.2087 8.51114 6.2087 11.2956V23.6397C6.2087 26.4242 8.43426 28.6883 11.1712 28.6883H23.305C26.042 28.6883 28.2676 26.4242 28.2676 23.6397V11.2956C28.2676 8.51114 26.042 6.24699 23.305 6.24699H11.1712ZM17.2353 24.2001C13.5879 24.2001 10.6149 21.1812 10.6149 17.4648C10.6149 13.7541 13.5823 10.7295 17.2353 10.7295C20.8828 10.7295 23.8558 13.7484 23.8558 17.4648C23.8558 21.1755 20.8828 24.2001 17.2353 24.2001ZM17.2353 12.9765C14.8018 12.9765 12.8236 14.9891 12.8236 17.4648C12.8236 19.9405 14.8018 21.9531 17.2353 21.9531C19.6688 21.9531 21.6471 19.9405 21.6471 17.4648C21.6471 14.9891 19.6688 12.9765 17.2353 12.9765Z" fill="white" stroke="white" stroke-width="0.1568" stroke-miterlimit="10"/>
<path d="M25.0754 11.9359C25.8514 11.9359 26.4805 11.296 26.4805 10.5065C26.4805 9.71711 25.8514 9.07715 25.0754 9.07715C24.2995 9.07715 23.6704 9.71711 23.6704 10.5065C23.6704 11.296 24.2995 11.9359 25.0754 11.9359Z" fill="white" stroke="white" stroke-width="0.1764" stroke-miterlimit="10"/>
<defs>
<radialGradient id="paint0_radial_60_31" cx="0" cy="0" r="1" gradientUnits="userSpaceOnUse" gradientTransform="translate(6.65523 40.931) rotate(-58.2615) scale(54.8393 39.6391)">
<stop stop-color="#F9ED32"/>
<stop offset="0.53" stop-color="#FF4700"/>
<stop offset="0.72" stop-color="#EE2A7B"/>
<stop offset="1" stop-color="#002AFF"/>
</radialGradient>
</defs>
</svg>
