<svg width="35" height="35" viewBox="0 0 35 35" fill="none" xmlns="http://www.w3.org/2000/svg">
<rect width="35" height="35" fill="white"/>
<g clip-path="url(#clip0_86_6)">
<path d="M18 3C10.1145 3 4 8.7785 4 16.58C4 20.661 5.673 24.189 8.396 26.625C8.6235 26.828 8.7635 27.115 8.7705 27.423L8.8475 29.915C8.85311 30.0984 8.90367 30.2775 8.99473 30.4368C9.0858 30.596 9.21459 30.7305 9.36978 30.8283C9.52497 30.9261 9.70181 30.9843 9.88476 30.9977C10.0677 31.0112 10.2512 30.9795 10.419 30.9055L13.198 29.6805C13.4325 29.5755 13.6985 29.558 13.947 29.6245C15.2245 29.9745 16.5825 30.1635 18 30.1635C25.8855 30.1635 32 24.385 32 16.5835C32 8.782 25.8855 3 18 3Z" fill="url(#paint0_radial_86_6)"/>
<path d="M9.59307 20.5524L13.7056 14.0284C13.8603 13.7828 14.0642 13.5719 14.3045 13.4091C14.5449 13.2463 14.8163 13.135 15.1018 13.0824C15.3873 13.0298 15.6806 13.0369 15.9631 13.1034C16.2457 13.1698 16.5115 13.2941 16.7436 13.4684L20.0161 15.9219C20.1622 16.0313 20.3399 16.0901 20.5224 16.0895C20.7049 16.0889 20.8822 16.0288 21.0276 15.9184L25.4446 12.5654C26.0326 12.1174 26.8026 12.8244 26.4106 13.4509L22.2946 19.9714C22.1399 20.2171 21.9359 20.428 21.6956 20.5908C21.4553 20.7536 21.1838 20.8648 20.8983 20.9175C20.6129 20.9701 20.3196 20.963 20.037 20.8965C19.7544 20.8301 19.4887 20.7058 19.2566 20.5314L15.9841 18.0779C15.838 17.9686 15.6602 17.9097 15.4777 17.9104C15.2952 17.911 15.1179 17.9711 14.9726 18.0814L10.5556 21.4344C9.96757 21.8824 9.19757 21.1789 9.59307 20.5524Z" fill="white"/>
</g>
<defs>
<radialGradient id="paint0_radial_86_6" cx="0" cy="0" r="1" gradientUnits="userSpaceOnUse" gradientTransform="translate(8.69 31) scale(30.8 30.8)">
<stop stop-color="#0099FF"/>
<stop offset="0.6" stop-color="#A033FF"/>
<stop offset="0.9" stop-color="#FF5280"/>
<stop offset="1" stop-color="#FF7061"/>
</radialGradient>
<clipPath id="clip0_86_6">
<rect width="28" height="28" fill="white" transform="translate(4 3)"/>
</clipPath>
</defs>
</svg>
