<svg width="35" height="35" viewBox="0 0 35 35" fill="none" xmlns="http://www.w3.org/2000/svg">
<rect width="35" height="35" fill="#FFFC03"/>
<g clip-path="url(#clip0_60_32)">
<path d="M29.9714 23.1815C29.8673 22.8291 29.3642 22.5824 29.3642 22.5824C29.3192 22.5542 29.274 22.533 29.2393 22.5154C28.4033 22.1066 27.6643 21.6132 27.0433 21.0528C26.5437 20.6017 26.1135 20.1083 25.7701 19.5798C25.3503 18.9383 25.1525 18.3991 25.0693 18.1101C25.0207 17.9198 25.0311 17.8458 25.0693 17.7471C25.104 17.6661 25.1977 17.585 25.2462 17.5498C25.5272 17.3489 25.9817 17.0493 26.2592 16.8661C26.4986 16.7075 26.7068 16.57 26.8282 16.4855C27.2202 16.207 27.4874 15.9251 27.6469 15.6185C27.8516 15.2238 27.8759 14.7868 27.7163 14.3603C27.5012 13.7824 26.9704 13.437 26.2974 13.437C26.1482 13.437 25.9921 13.4546 25.8395 13.4863C25.4544 13.5709 25.0866 13.7119 24.7813 13.8317C24.7605 13.8423 24.7362 13.8247 24.7362 13.8C24.7674 13.0282 24.8056 11.9921 24.7224 11.0053C24.646 10.1137 24.4656 9.36299 24.1708 8.70748C23.8724 8.04846 23.4908 7.56212 23.1855 7.21321C22.8975 6.87841 22.3945 6.38502 21.6312 5.94097C20.5592 5.31718 19.3381 5 18.0024 5C16.6702 5 15.4525 5.31718 14.377 5.93745C13.5721 6.40617 13.0552 6.9348 12.8193 7.20969C12.5175 7.56212 12.1324 8.04846 11.834 8.70396C11.5391 9.35947 11.3587 10.1101 11.2824 11.0018C11.1991 11.9886 11.2338 12.9436 11.2685 13.7965C11.2685 13.8211 11.2442 13.8388 11.2234 13.8282C10.9181 13.7084 10.5504 13.5674 10.1653 13.4828C10.0126 13.4476 9.86 13.4335 9.70735 13.4335C9.03432 13.4335 8.50352 13.7788 8.28842 14.3568C8.12883 14.7868 8.15312 15.2202 8.35781 15.615C8.5174 15.9215 8.78453 16.2035 9.17656 16.4819C9.29798 16.5665 9.50614 16.704 9.74552 16.8625C10.0196 17.0423 10.4602 17.3312 10.7412 17.5357C10.7759 17.5604 10.8938 17.652 10.932 17.7471C10.9736 17.8493 10.9806 17.9233 10.9285 18.1242C10.8418 18.4167 10.6441 18.9489 10.2312 19.5798C9.88776 20.1083 9.45757 20.6017 8.95799 21.0528C8.33353 21.6132 7.59457 22.1066 6.76195 22.5154C6.72378 22.533 6.67521 22.5577 6.62317 22.5894C6.57113 22.6211 6.1236 22.8467 6.02993 23.1815C5.89116 23.6749 6.2589 24.1365 6.64052 24.3867C7.25805 24.7921 8.01088 25.0105 8.44801 25.1269C8.56944 25.1586 8.68045 25.1903 8.78106 25.222C8.84351 25.2432 8.99962 25.303 9.06901 25.3912C9.15227 25.5005 9.16268 25.6378 9.1939 25.793C9.24248 26.0537 9.35002 26.3744 9.66573 26.5964C10.0126 26.8396 10.4567 26.8573 11.0153 26.8784C11.6016 26.8996 12.3301 26.9313 13.1627 27.2097C13.5478 27.3401 13.8982 27.5586 14.3041 27.8123C15.1506 28.3409 16.2053 29 18.0058 29C19.8064 29 20.868 28.3374 21.7215 27.8088C22.1239 27.5586 22.4708 27.3401 22.849 27.2132C23.6816 26.9348 24.4101 26.9066 24.9964 26.8819C25.555 26.8608 25.999 26.8432 26.346 26.6C26.686 26.3638 26.7831 26.0079 26.8282 25.7401C26.8525 25.6097 26.8698 25.4899 26.9427 25.3912C27.0051 25.3066 27.1508 25.2502 27.2202 25.2256C27.3243 25.1938 27.4354 25.1621 27.5637 25.1269C28.0008 25.007 28.5455 24.8696 29.2116 24.4854C29.9991 24.0273 30.0547 23.4599 29.9714 23.1815Z" fill="white"/>
<path fill-rule="evenodd" clip-rule="evenodd" d="M29.9898 21.7526C30.3822 21.9717 30.7251 22.2333 30.9054 22.7247C31.1104 23.2726 30.9867 23.8983 30.4918 24.4285L30.4847 24.4357C30.3079 24.6371 30.0782 24.8139 29.7883 24.973C29.1308 25.337 28.5758 25.5103 28.141 25.6304C28.0597 25.6552 27.9042 25.7118 27.8335 25.7719C27.7345 25.8566 27.6933 25.9656 27.6418 26.1014C27.6032 26.2035 27.5588 26.3207 27.4799 26.4541C27.3103 26.744 27.1017 26.9349 26.932 27.0515C26.3978 27.4205 25.8007 27.4437 25.165 27.4682L25.154 27.4686C24.5742 27.4898 23.9203 27.5146 23.1744 27.762C22.8872 27.8566 22.5838 28.0417 22.2333 28.2555C22.2172 28.2653 22.201 28.2752 22.1846 28.2852C21.2867 28.8366 20.053 29.5932 18.0027 29.5932C15.9553 29.5932 14.7328 28.8422 13.8352 28.291L13.8314 28.2887C13.4603 28.059 13.1386 27.861 12.8276 27.7585C12.0782 27.511 11.4242 27.4863 10.848 27.4651L10.837 27.4647C10.2013 27.4401 9.60411 27.417 9.06988 27.048C8.92141 26.949 8.74466 26.7899 8.58912 26.5601C8.46262 26.3782 8.40493 26.2243 8.3565 26.0951C8.30613 25.9607 8.26578 25.853 8.16846 25.7683C8.09069 25.7012 7.91395 25.6446 7.83971 25.6234C7.40845 25.5032 6.857 25.33 6.21363 24.973C5.94144 24.8209 5.72227 24.6583 5.54906 24.471C5.02235 23.9301 4.88448 23.2903 5.09305 22.7247C5.32841 22.088 5.8368 21.8325 6.36977 21.5647C6.46117 21.5188 6.5533 21.4725 6.6449 21.4238C7.82557 20.784 8.75173 19.9816 9.39863 19.0342C9.61426 18.7161 9.7698 18.4262 9.87585 18.1894C9.93594 18.0161 9.93594 17.9242 9.89353 17.8358C9.85817 17.7616 9.74859 17.6803 9.71678 17.6591C9.55517 17.5513 9.38903 17.4436 9.25662 17.3578C9.22395 17.3366 9.19331 17.3167 9.16532 17.2985C8.90374 17.1288 8.69871 16.9945 8.56438 16.9026C8.06242 16.5527 7.71246 16.1815 7.49328 15.7644C7.18574 15.1775 7.14686 14.5059 7.3837 13.8767C7.71599 13.0035 8.54317 12.4592 9.54356 12.4592C9.75213 12.4592 9.96423 12.4804 10.1728 12.5264C10.1993 12.5334 10.2267 12.5396 10.2541 12.5458C10.2815 12.5519 10.3089 12.5582 10.3354 12.5652C10.3248 11.9713 10.3389 11.3386 10.392 10.7164C10.5793 8.53536 11.3429 7.39003 12.1418 6.47801C12.474 6.09977 13.0502 5.54125 13.9234 5.04281C15.1359 4.34996 16.5039 4 17.9957 4C19.491 4 20.8625 4.34996 22.0715 5.04281C22.9375 5.54125 23.5173 6.09624 23.8496 6.47801C24.6485 7.39003 25.412 8.53182 25.5994 10.7164C25.6524 11.3351 25.6665 11.9713 25.6559 12.5652C25.7089 12.5511 25.762 12.537 25.8185 12.5264C26.0306 12.4839 26.2392 12.4592 26.4477 12.4592C27.4517 12.4592 28.2753 13.0035 28.6076 13.8767C28.8445 14.5095 28.8056 15.1775 28.498 15.7644C28.2789 16.1815 27.9289 16.5527 27.4269 16.9026C27.3104 16.9845 27.1322 17.1 26.9097 17.2443C26.8825 17.2619 26.8546 17.28 26.826 17.2985C26.7656 17.3383 26.6921 17.3862 26.612 17.4384C26.5001 17.5113 26.3749 17.5929 26.2534 17.6733C26.2109 17.7051 26.1296 17.7722 26.0978 17.8358C26.0589 17.9172 26.0553 18.0091 26.1119 18.1716C26.2215 18.4121 26.3771 18.709 26.5998 19.0342C27.2608 20.0028 28.2117 20.8193 29.4348 21.4663C29.555 21.5263 29.6752 21.5865 29.7918 21.6465C29.8484 21.6748 29.9155 21.7102 29.9898 21.7526ZM27.5641 24.2791C27.983 24.167 28.4785 24.0344 29.0849 23.7004C29.7919 23.308 29.3924 23.0676 29.1485 22.9545C25.1257 21.0067 24.4823 17.9985 24.4541 17.7723C24.4529 17.7618 24.4516 17.7515 24.4504 17.7412C24.4197 17.487 24.3949 17.2808 24.6804 17.0157C24.8736 16.8368 25.5179 16.4194 26.025 16.091C26.2691 15.9328 26.4814 15.7953 26.5963 15.7149C27.1831 15.3084 27.4411 14.8983 27.2503 14.3964C27.1194 14.0499 26.7942 13.9191 26.4514 13.9191C26.3453 13.9191 26.2393 13.9333 26.1332 13.9545C25.7503 14.0365 25.3736 14.1837 25.0554 14.308C24.839 14.3926 24.6496 14.4666 24.5036 14.5024C24.4541 14.513 24.4081 14.5201 24.3692 14.5201C24.1784 14.5201 24.1077 14.4352 24.1218 14.2019C24.1231 14.1824 24.1244 14.1623 24.1257 14.1417C24.1729 13.4223 24.2602 12.0913 24.1537 10.8472C24.0016 9.08683 23.4325 8.2137 22.7573 7.43954C22.4356 7.06837 20.9191 5.45996 17.9992 5.45996C15.0864 5.45996 13.5664 7.06837 13.2412 7.43954C12.566 8.21016 11.9969 9.08683 11.8449 10.8472C11.743 12.0374 11.8214 13.307 11.8671 14.0448C11.8705 14.1002 11.8737 14.1527 11.8767 14.2019C11.8908 14.4246 11.8201 14.5201 11.6292 14.5201C11.5868 14.5201 11.5444 14.513 11.4949 14.5024C11.3448 14.4671 11.1486 14.3907 10.9244 14.3033C10.6102 14.1809 10.2407 14.037 9.8653 13.9545C9.76279 13.9333 9.6532 13.9191 9.54715 13.9191C9.20426 13.9191 8.87904 14.0499 8.74825 14.3964C8.55736 14.8983 8.81542 15.3048 9.40222 15.7149C9.50916 15.7887 9.70054 15.9126 9.9234 16.057C10.4372 16.3897 11.1185 16.8309 11.3182 17.0157C11.6098 17.2799 11.5818 17.4908 11.5475 17.7485C11.5465 17.7564 11.5455 17.7643 11.5444 17.7723C11.5161 17.9985 10.8763 21.0067 6.84998 22.9545C6.61314 23.0676 6.21368 23.308 6.92067 23.7004C7.52816 24.037 8.02552 24.1693 8.44522 24.2809C8.79239 24.3733 9.08641 24.4515 9.34566 24.6194C9.60957 24.7897 9.6469 25.0664 9.68155 25.3233C9.71094 25.5412 9.7384 25.7448 9.90065 25.8567C10.0892 25.987 10.4385 26.0003 10.9091 26.0182C11.524 26.0417 12.346 26.073 13.2872 26.3834C13.7558 26.5384 14.1633 26.7888 14.5926 27.0526C15.4358 27.5706 16.363 28.1403 18.0028 28.1403C19.6403 28.1403 20.5772 27.5658 21.4231 27.047C21.8518 26.7841 22.2571 26.5356 22.7185 26.3834C23.6595 26.073 24.4815 26.0417 25.0964 26.0182C25.5671 26.0003 25.9164 25.987 26.105 25.8567C26.2692 25.7428 26.2965 25.5384 26.3257 25.3201C26.3599 25.0642 26.3966 24.7893 26.6599 24.6194C26.9214 24.4511 27.2162 24.3722 27.5641 24.2791Z" fill="black"/>
</g>
<defs>
<clipPath id="clip0_60_32">
<rect width="26" height="26" fill="white" transform="translate(5 4)"/>
</clipPath>
</defs>
</svg>
